<svg width="15" height="14" viewBox="0 0 15 14" fill="none" xmlns="http://www.w3.org/2000/svg">
<path d="M13.5667 7.73822H2.36667V2.5564C2.36613 2.36126 2.40481 2.16794 2.48047 1.98765C2.55613 1.80737 2.66727 1.64368 2.80746 1.50607L2.81913 1.49456C3.03883 1.27803 3.3209 1.13373 3.62682 1.08137C3.93273 1.02901 4.24756 1.07114 4.5283 1.20202C4.26316 1.63711 4.15296 2.14719 4.2152 2.65119C4.27744 3.15519 4.50856 3.62421 4.87182 3.9837L5.19123 4.29896L4.60331 4.87926L5.26324 5.53062L5.85115 4.95034L9.10875 1.73511L9.69666 1.15483L9.03671 0.503449L8.44876 1.08373L8.12936 0.76847C7.74694 0.392077 7.24285 0.160055 6.70491 0.112836C6.16697 0.0656163 5.6293 0.206193 5.1856 0.51007C4.71771 0.218424 4.16324 0.0925184 3.61326 0.153036C3.06329 0.213554 2.55053 0.456896 2.1592 0.843088L2.14754 0.854603C1.9204 1.07756 1.74032 1.34278 1.61773 1.63489C1.49514 1.927 1.43246 2.24022 1.43333 2.5564V7.73822H0.5V8.65943H1.43333V9.54322C1.43331 9.61748 1.44545 9.69125 1.46927 9.76169L2.3375 12.3324C2.38383 12.4701 2.47293 12.5898 2.59213 12.6746C2.71133 12.7594 2.85457 12.805 3.00151 12.8049H3.37776L3.0375 13.9564H4.00971L4.35 12.8049H10.4196L10.7696 13.9564H11.7437L11.3938 12.8049H11.9984C12.1453 12.805 12.2886 12.7595 12.4078 12.6746C12.527 12.5898 12.6162 12.4701 12.6625 12.3324L13.5307 9.76169C13.5545 9.69125 13.5667 9.61748 13.5667 9.54322V8.65943H14.5V7.73822H13.5667ZM5.53183 1.41985C5.78897 1.16661 6.13737 1.02439 6.50062 1.02439C6.86386 1.02439 7.21227 1.16661 7.4694 1.41985L7.78875 1.73511L5.85124 3.64746L5.53183 3.33226C5.27528 3.07846 5.13119 2.73458 5.13119 2.37606C5.13119 2.01754 5.27528 1.67365 5.53183 1.41985ZM12.6333 9.50579L11.8303 11.8837H3.16968L2.36667 9.50579V8.65943H12.6333V9.50579Z" fill="white"/>
</svg>
