<svg width="15" height="12" viewBox="0 0 15 12" fill="none" xmlns="http://www.w3.org/2000/svg">
<path d="M2.5 2.54544C2.5 1.89101 2.76339 1.26339 3.23223 0.800635C3.70107 0.337883 4.33696 0.0779114 5 0.0779114H10C10.663 0.0779114 11.2989 0.337883 11.7678 0.800635C12.2366 1.26339 12.5 1.89101 12.5 2.54544V4.07531C13.0647 4.18908 13.5722 4.49192 13.9367 4.93258C14.3011 5.37324 14.5001 5.92465 14.5 6.4935V11.4286C14.5 11.5594 14.4473 11.685 14.3536 11.7775C14.2598 11.8701 14.1326 11.9221 14 11.9221C13.8674 11.9221 13.7402 11.8701 13.6464 11.7775C13.5527 11.685 13.5 11.5594 13.5 11.4286V8.96103H1.5V11.4286C1.5 11.5594 1.44732 11.685 1.35355 11.7775C1.25979 11.8701 1.13261 11.9221 1 11.9221C0.867392 11.9221 0.740215 11.8701 0.646447 11.7775C0.552678 11.685 0.5 11.5594 0.5 11.4286V6.4935C0.499882 5.92465 0.698892 5.37324 1.06335 4.93258C1.4278 4.49192 1.93532 4.18908 2.5 4.07531V2.54544ZM1.5 7.97402H13.5V6.4935C13.5 6.10084 13.342 5.72426 13.0607 5.44661C12.7794 5.16896 12.3978 5.01298 12 5.01298H3C2.60218 5.01298 2.22064 5.16896 1.93934 5.44661C1.65804 5.72426 1.5 6.10084 1.5 6.4935V7.97402ZM11.5 2.54544C11.5 2.15279 11.342 1.77621 11.0607 1.49856C10.7794 1.22091 10.3978 1.06492 10 1.06492H5C4.60218 1.06492 4.22064 1.22091 3.93934 1.49856C3.65804 1.77621 3.5 2.15279 3.5 2.54544V4.02596H4.5V3.53246C4.5 3.40157 4.55268 3.27605 4.64645 3.1835C4.74021 3.09095 4.86739 3.03895 5 3.03895H6.5C6.63261 3.03895 6.75979 3.09095 6.85355 3.1835C6.94732 3.27605 7 3.40157 7 3.53246V4.02596H8V3.53246C8 3.40157 8.05268 3.27605 8.14645 3.1835C8.24021 3.09095 8.36739 3.03895 8.5 3.03895H10C10.1326 3.03895 10.2598 3.09095 10.3536 3.1835C10.4473 3.27605 10.5 3.40157 10.5 3.53246V4.02596H11.5V2.54544Z" fill="white"/>
</svg>
