<svg width="130" height="80" viewBox="0 0 130 80" fill="none" xmlns="http://www.w3.org/2000/svg">
<path d="M0 64.2847H11.1988V67.0246H6.98652V79.83H4.08836V67.0246H0V64.2847Z" fill="white"/>
<path d="M19.0334 71.3144C20.0427 71.3144 20.5239 71.0105 20.5239 69.1323C20.5239 67.3661 19.9443 66.929 19.0334 66.929H15.5982V71.3144H19.0334ZM12.6889 64.2847H19.3181C21.683 64.2847 23.4428 65.42 23.4428 69.1323C23.4428 72.9801 21.8712 73.4366 21.0298 73.7086L23.8991 79.83H20.6378L18.1328 73.9473L15.5867 73.6502V79.83H12.6889V64.2847Z" fill="white"/>
<path d="M25.4521 64.2847H28.3503V73.0343C28.3503 76.5881 29.1185 77.1967 31.2899 77.1967C33.2254 77.1967 34.1052 76.4651 34.1052 73.0343V64.2847H37.0237V73.0343C37.0237 79.8937 33.7946 79.9362 31.2899 79.9362C28.4746 79.9362 25.4521 80.1058 25.4521 73.0343V64.2847Z" fill="white"/>
<path d="M38.9669 68.1709C38.9669 65.0918 40.7474 64.1926 43.0657 64.1573C45.2445 64.1106 47.7277 64.4092 48.9238 64.7724V67.1096C47.5989 66.9894 44.6142 66.8972 43.8627 66.8972C42.5959 66.8683 41.8651 66.9586 41.8651 68.405V69.1643C41.8651 70.3959 42.3248 70.6611 43.4984 70.6611H45.8913C48.8609 70.6611 49.4734 73.0629 49.4734 74.7809V75.8164C49.4734 79.3459 47.3301 80 45.2807 80C42.6951 80 41.0008 79.8372 39.4337 79.3637V77.0268C40.2618 77.1118 42.7864 77.2601 44.7115 77.2601C45.5829 77.2601 46.5756 77.1129 46.5756 75.9215V75.0849C46.5756 74.2012 46.3148 73.6343 45.2082 73.6343H42.8796C39.2258 73.6343 38.9669 70.866 38.9669 69.5141V68.1709Z" fill="white"/>
<path d="M50.1802 64.2847H61.379V67.0246H57.1667V79.83H54.2685V67.0246H50.1802V64.2847Z" fill="white"/>
<path d="M62.5958 67.513C62.5958 64.8156 64.458 64.2563 65.8871 64.2848C65.8871 64.2848 71.2215 64.4381 72.5537 64.6248V67.0827H66.5702C65.494 67.0827 65.494 67.6985 65.494 68.2722V70.6975L71.6121 70.921V73.3657L65.494 73.5664V75.9917C65.5032 77.1171 66.1767 77.0958 66.777 77.0958H72.5537V79.5329C71.3813 79.6961 66.0942 79.8937 66.0942 79.8937C64.7428 79.9552 62.5958 79.641 62.5958 76.7741V67.513Z" fill="white"/>
<path d="M74.1592 68.1709C74.1592 65.0918 75.9397 64.1926 78.2579 64.1573C80.4367 64.1106 82.9196 64.4092 84.1161 64.7724V67.1096C82.7912 66.9894 79.8065 66.8972 79.055 66.8972C77.7882 66.8683 77.057 66.9586 77.057 68.405V69.1643C77.057 70.3959 77.5171 70.6611 78.6903 70.6611H81.0836C84.0528 70.6611 84.666 73.0629 84.666 74.7809V75.8164C84.666 79.3459 82.5224 80 80.473 80C77.8874 80 76.1931 79.8372 74.626 79.3637V77.0268C75.4541 77.1118 77.9787 77.2601 79.9038 77.2601C80.7752 77.2601 81.7678 77.1129 81.7678 75.9215V75.0849C81.7678 74.2012 81.5071 73.6343 80.4001 73.6343H78.0719C74.4181 73.6343 74.1592 70.866 74.1592 69.5141V68.1709Z" fill="white"/>
<path d="M85.3724 64.2847H96.5712V67.0246H92.3586V79.83H89.4604V67.0246H85.3724V64.2847Z" fill="white"/>
<path d="M103.808 73.7507L102.105 68.2027L100.283 73.7507H103.808ZM100.438 64.2847H103.734L108.656 79.83H105.57L104.494 76.3855H99.5312L98.4379 79.83H95.3248L100.438 64.2847Z" fill="white"/>
<path d="M107.626 64.2847H118.825V67.0246H114.613V79.83H111.714V67.0246H107.626V64.2847Z" fill="white"/>
<path d="M120.042 67.513C120.042 64.8156 121.904 64.2563 123.333 64.2848C123.333 64.2848 128.668 64.4381 130 64.6248V67.0827H124.017C122.94 67.0827 122.94 67.6985 122.94 68.2722V70.6975L129.058 70.921V73.3657L122.94 73.5664V75.9917C122.949 77.1171 123.623 77.0958 124.224 77.0958H130V79.5329C128.828 79.6961 123.541 79.8937 123.541 79.8937C122.189 79.9552 120.042 79.641 120.042 76.7741V67.513Z" fill="white"/>
<path d="M64.3167 19.3439V16.5035H61.5494V19.3439H64.3167Z" fill="white"/>
<path d="M65.9637 19.3439H68.7353V16.5035H65.9637V19.3439Z" fill="white"/>
<path d="M64.3167 21.0344H61.5494V23.8737H64.3167V21.0344Z" fill="white"/>
<path d="M65.9637 21.0344V23.8737H68.7353V21.0344H65.9637Z" fill="white"/>
<path d="M39.045 36.0549V32.8833H35.9564V36.0549H39.045Z" fill="white"/>
<path d="M40.8843 36.0549H43.9782V32.8833H40.8843V36.0549Z" fill="white"/>
<path d="M39.045 37.941H35.9564V41.1119H39.045V37.941Z" fill="white"/>
<path d="M40.8843 37.941V41.1119H43.9782V37.941H40.8843Z" fill="white"/>
<path d="M89.9405 31.4751V29.2224H87.7447V31.4751H89.9405Z" fill="white"/>
<path d="M91.2446 31.4751H93.4434V29.2224H91.2446V31.4751Z" fill="white"/>
<path d="M89.9405 32.8141H87.7447V35.066H89.9405V32.8141Z" fill="white"/>
<path d="M91.2446 32.8141V35.066H93.4434V32.8141H91.2446Z" fill="white"/>
<path d="M64.6791 8.13584L80.4682 24.3333L65.1655 40.0314L49.3768 23.8358L64.6791 8.13584ZM29.3131 33.3041L39.9929 22.3458L61.1988 44.1015L56.191 49.239L69.3323 43.8959L90.3358 22.3458L99.4146 31.6619L105.097 29.3512L90.3358 14.2112L84.4315 20.2654L64.6791 0.00012207L45.4102 19.7665L39.9929 14.2112L25.4592 29.1201L29.3131 33.3041Z" fill="white"/>
<path d="M46.6821 55.814L23.5922 30.758L19.2594 35.2497L45.8222 60.4514L110.676 29.7905L46.6821 55.814Z" fill="#171E27"/>
</svg>
