<svg width="17" height="15" viewBox="0 0 17 15" fill="none" xmlns="http://www.w3.org/2000/svg">
<path d="M12.36 0.103882C12.9381 0.10377 13.4983 0.301391 13.9454 0.663107C14.3925 1.02482 14.6987 1.52828 14.812 2.08778L15.009 3.06492H15.75C15.9312 3.06493 16.1063 3.12971 16.2429 3.24729C16.3795 3.36487 16.4684 3.52728 16.493 3.7045L16.5 3.80518C16.5 3.98406 16.4344 4.15689 16.3152 4.29171C16.1961 4.42652 16.0316 4.5142 15.852 4.53853L15.75 4.54544H15.309L15.421 5.09817C15.7324 5.18804 16.0059 5.37514 16.2004 5.63139C16.3949 5.88765 16.5001 6.19925 16.5 6.51947V11.4545C16.5 11.8472 16.342 12.2238 16.0607 12.5014C15.7794 12.7791 15.3978 12.9351 15 12.9351H14.5V13.9221C14.5 14.1838 14.3946 14.4349 14.2071 14.62C14.0196 14.8051 13.7652 14.9091 13.5 14.9091C13.2348 14.9091 12.9804 14.8051 12.7929 14.62C12.6054 14.4349 12.5 14.1838 12.5 13.9221V12.9351H4.5V13.9221C4.5 14.1838 4.39464 14.4349 4.20711 14.62C4.01957 14.8051 3.76522 14.9091 3.5 14.9091C3.23478 14.9091 2.98043 14.8051 2.79289 14.62C2.60536 14.4349 2.5 14.1838 2.5 13.9221V12.9351H2C1.60218 12.9351 1.22064 12.7791 0.93934 12.5014C0.658035 12.2238 0.5 11.8472 0.5 11.4545V6.51947C0.499937 6.19925 0.605059 5.88765 0.7996 5.63139C0.994141 5.37514 1.26761 5.18804 1.579 5.09817L1.69 4.54544H1.25C1.05109 4.54544 0.860322 4.46745 0.71967 4.32862C0.579018 4.1898 0.5 4.00151 0.5 3.80518C0.5 3.60885 0.579018 3.42056 0.71967 3.28174C0.860322 3.14291 1.05109 3.06492 1.25 3.06492H1.99L2.188 2.08778C2.3013 1.52828 2.60755 1.02482 3.05461 0.663107C3.50168 0.301391 4.06193 0.10377 4.64 0.103882H12.36ZM15 6.02596H2C1.86739 6.02596 1.74021 6.07795 1.64645 6.1705C1.55268 6.26305 1.5 6.38858 1.5 6.51947V11.4545C1.5 11.5854 1.55268 11.7109 1.64645 11.8035C1.74021 11.896 1.86739 11.948 2 11.948H15C15.1326 11.948 15.2598 11.896 15.3536 11.8035C15.4473 11.7109 15.5 11.5854 15.5 11.4545V6.51947C15.5 6.38858 15.4473 6.26305 15.3536 6.1705C15.2598 6.07795 15.1326 6.02596 15 6.02596ZM4.5 7.99999C4.76522 7.99999 5.01957 8.10397 5.20711 8.28907C5.39464 8.47418 5.5 8.72523 5.5 8.987C5.5 9.24877 5.39464 9.49982 5.20711 9.68492C5.01957 9.87002 4.76522 9.97401 4.5 9.97401C4.23478 9.97401 3.98043 9.87002 3.79289 9.68492C3.60536 9.49982 3.5 9.24877 3.5 8.987C3.5 8.72523 3.60536 8.47418 3.79289 8.28907C3.98043 8.10397 4.23478 7.99999 4.5 7.99999ZM12.5 7.99999C12.7652 7.99999 13.0196 8.10397 13.2071 8.28907C13.3946 8.47418 13.5 8.72523 13.5 8.987C13.5 9.24877 13.3946 9.49982 13.2071 9.68492C13.0196 9.87002 12.7652 9.97401 12.5 9.97401C12.2348 9.97401 11.9804 9.87002 11.7929 9.68492C11.6054 9.49982 11.5 9.24877 11.5 8.987C11.5 8.72523 11.6054 8.47418 11.7929 8.28907C11.9804 8.10397 12.2348 7.99999 12.5 7.99999ZM12.36 1.09089H4.64C4.29319 1.09087 3.95709 1.20947 3.68889 1.42649C3.42069 1.64352 3.23697 1.94557 3.169 2.28123L2.609 5.03895H14.39L13.831 2.28123C13.7631 1.94573 13.5795 1.64381 13.3115 1.42681C13.0435 1.2098 12.7076 1.0911 12.361 1.09089H12.36Z" fill="white"/>
</svg>
