<svg width="9" height="6" viewBox="0 0 9 6" fill="none" xmlns="http://www.w3.org/2000/svg">
<path d="M4.00078 6C3.83058 5.99914 3.66272 5.96041 3.50935 5.88661C3.35599 5.81281 3.22098 5.7058 3.11411 5.57333L0.307445 2.17333C0.143441 1.96865 0.0402359 1.722 0.00958995 1.46151C-0.021056 1.20102 0.0220901 0.937162 0.134112 0.7C0.224965 0.493884 0.373227 0.318276 0.561191 0.194148C0.749155 0.0700212 0.968876 0.00262204 1.19411 0H6.80744C7.03268 0.00262204 7.2524 0.0700212 7.44037 0.194148C7.62833 0.318276 7.77659 0.493884 7.86744 0.7C7.97947 0.937162 8.02261 1.20102 7.99197 1.46151C7.96132 1.722 7.85812 1.96865 7.69411 2.17333L4.88744 5.57333C4.78058 5.7058 4.64557 5.81281 4.4922 5.88661C4.33884 5.96041 4.17097 5.99914 4.00078 6Z" fill="#C5C5C5"/>
</svg>
